HIERARCHY
ROOT pelvis
{
  OFFSET 0 100 0
  CHANNELS 6 Xposition Yposition Zposition Zrotation Xrotation Yrotation
  JOINT pelvis_right_femur
  {
    OFFSET -10.78128 -3.44521 -0.5502486
    CHANNELS 3 Zrotation Xrotation Yrotation
    JOINT right_femur_tibia
    {
      OFFSET -0.8047443 -44.0398 -0.1307829
      CHANNELS 3 Zrotation Xrotation Yrotation
      JOINT right_tibia_foot
      {
        OFFSET 3.006224 -47.83518 -5
        CHANNELS 3 Zrotation Xrotation Yrotation
        End Site
        {
          OFFSET 0 -5 15
        }
      }
    }
  }
  JOINT pelvis_left_femur
  {
    OFFSET 10.78128 -3.44521 -0.5502486
    CHANNELS 3 Zrotation Xrotation Yrotation
    JOINT left_femur_tibia
    {
      OFFSET 0.8047443 -44.0398 -0.1307829
      CHANNELS 3 Zrotation Xrotation Yrotation
      JOINT left_tibia_foot
      {
        OFFSET -4.370144 -48.10324 -4.275266
        CHANNELS 3 Zrotation Xrotation Yrotation
        End Site
        {
          OFFSET 0 -5 15
        }
      }
    }
  }
  JOINT pelvis_spine1
  {
    OFFSET 0 6.468898 -3.129235
    CHANNELS 3 Zrotation Xrotation Yrotation
    JOINT spine1
    {
      OFFSET 0 23.15396 4.99043
      CHANNELS 3 Zrotation Xrotation Yrotation
      JOINT spine2
      {
        OFFSET 0 20.79997 -5.064912
        CHANNELS 3 Zrotation Xrotation Yrotation
        JOINT neck
        {
          OFFSET 0 14.38658 9.616178
          CHANNELS 3 Zrotation Xrotation Yrotation
          End Site
          {
            OFFSET 0 20 0
          }
        }
      }
      JOINT right_manubrium
      {
        OFFSET -5.722621 16.35077 3.967754
        CHANNELS 3 Zrotation Xrotation Yrotation
        JOINT right_clavicle
        {
          OFFSET -13.16364 1.694482 -4.693211
          CHANNELS 3 Zrotation Xrotation Yrotation
          JOINT right_humerus
          {
            OFFSET -28.5034 -0.3100689 -2.792744
            CHANNELS 3 Zrotation Xrotation Yrotation
            JOINT right_radius
            {
              OFFSET -25.15693 0.02248979 -1.271978
              CHANNELS 3 Zrotation Xrotation Yrotation
              End Site
              {
                OFFSET -15 0 0
              }
            }
          }
        }
      }
      JOINT left_manubrium
      {
        OFFSET 5.722621 16.35077 3.967754
        CHANNELS 3 Zrotation Xrotation Yrotation
        JOINT left_clavicle
        {
          OFFSET 13.16364 1.694482 -4.693211
          CHANNELS 3 Zrotation Xrotation Yrotation
          JOINT left_humerus
          {
            OFFSET 29.39168 -1.063119 -2.237045
            CHANNELS 3 Zrotation Xrotation Yrotation
            JOINT left_radius
            {
              OFFSET 24.59957 -0.9528479 0.9047498
              CHANNELS 3 Zrotation Xrotation Yrotation
              End Site
              {
                OFFSET 15 -0 -0
              }
            }
          }
        }
      }
    }
  }
}
MOTION
Frames: 9
Frame Time: 0.0416666666667
0 103.5113 0 2.042349 -0.09120703 0.222126 2.224655 -15.78695 10.49815 -0 40.65525 -0 -5.597424 -17.78818 -2.987828 -8.225004 8.79484 -23.61095 -0 4.309313 -0 15.06775 -13.3748 29.57919 -4.886974 -4.085761 5.46753 2.649504 10.02694 -7.40001 1.442444 21.79263 6.541958 2.817233 -24.35243 9.745806 7.332665 -20.02762 11.82272 84.58437 39.81674 -17.01444 -0 0 16.59159 -6.129886 8.044354 4.351802 5.355889 -18.65919 -1.066846 -90.83676 20.24264 19.49226 0 0 -14.85208 15.64372 13.20112 -4.436586
0.4422156 103.8049 1.616073 1.783144 0.1720336 0.3977612 2.682455 -17.22076 9.994764 -0 38.92218 -0 -5.56366 -17.04027 -2.688651 -8.04878 9.052371 -23.17401 -0 4.36065 -0 14.8162 -13.80054 29.09571 -4.672291 -3.921884 5.358522 2.721518 10.09031 -7.500384 1.380649 21.67349 6.603076 2.903504 -24.51688 9.673879 7.222501 -20.01947 11.85117 84.72077 39.5105 -17.31203 -0 0 16.41369 -6.321614 8.084133 4.398923 5.611384 -18.9922 -1.205374 -90.80973 20.18976 19.37831 0 0 -15.46536 15.77664 13.23716 -4.588522
0.7898306 103.8615 3.578245 0.5984733 0.1741913 0.4613546 4.112588 -21.45112 8.119175 -0 33.77516 -0 -5.331227 -14.24942 -2.455238 -6.903747 11.18077 -22.24446 -0 4.661239 -0 10.6379 -16.78517 26.42044 -3.589765 -3.079018 4.367217 2.730244 9.653239 -7.549919 1.478981 21.88343 6.813874 2.960038 -24.82333 9.798439 6.243753 -19.57022 11.63613 85.69478 36.53723 -18.60548 -0 0 15.20734 -7.842564 8.871897 5.073632 6.011151 -19.58736 -1.871685 -91.80798 24.28165 19.82649 0 0 -17.67211 11.35644 15.84695 0.8568659
1.1144 103.6743 6.023353 0.02298159 0.06814358 0.5329507 4.339635 -24.79291 5.626401 -0 29.68177 -0 -5.924032 -10.50551 -1.689701 -6.296809 11.99489 -20.55921 -0 4.86757 -0 8.409601 -18.3569 23.78813 -2.947105 -2.338997 3.744913 2.57445 9.712025 -7.517492 1.423353 21.95448 6.963739 3.227454 -24.67604 9.501932 5.473697 -19.21638 11.59048 86.4156 34.42608 -19.20673 -0 0 14.00683 -9.86617 9.184284 5.956219 6.543838 -20.6177 -2.656802 -91.17078 24.61954 18.79329 0 0 -19.40709 10.68623 16.57481 1.662357
1.385866 103.3386 8.92095 -0.519241 0.6473748 0.5940969 4.977602 -28.33836 4.488678 -0 24.70178 -0 -6.034792 -8.566566 -1.389192 -5.806668 13.16056 -19.35162 -0 5.909618 -0 6.613589 -19.72235 21.87 -2.471434 -1.845881 3.396108 2.689515 9.510262 -7.678439 1.481504 21.80995 6.993562 3.318233 -24.82934 9.453693 5.025831 -18.71885 11.40157 86.97376 33.60581 -20.07866 -0 0 13.05 -10.39651 9.432064 6.104255 6.932118 -21.2561 -2.865122 -90.71729 25.33112 17.94378 0 0 -21.1747 9.93137 16.72854 2.700707
1.608795 102.8236 12.4059 -0.807496 1.046165 0.7309787 5.150353 -31.2269 2.968049 -0 19.84225 -0 -6.443029 -5.802444 -0.9718402 -5.511355 14.11725 -17.71591 -0 7.282512 -0 5.303461 -20.68586 19.9155 -2.135406 -1.463678 3.11882 2.696906 9.503195 -7.764981 1.535308 21.699 6.966729 3.379688 -24.81031 9.316252 4.422558 -18.2234 11.24434 87.81059 32.63495 -20.91597 -0 0 11.69779 -11.39591 9.652575 6.487315 7.283598 -22.11042 -3.160454 -89.58122 24.90295 16.42288 0 0 -23.11142 10.1793 16.42537 2.534017
1.764715 102.055 16.66051 -0.7856576 0.6695599 1.033231 4.469002 -32.84417 0.4693978 -0 15.30333 -0 -7.217338 -2.042851 -0.7155139 -5.287557 15.2292 -15.47495 -0 8.731243 -0 3.383532 -21.64882 17.30961 -1.861268 -1.100015 2.687353 2.425917 9.50305 -7.650401 1.646858 21.92455 6.815567 3.293598 -24.21678 9.031317 3.272727 -17.57189 11.02731 89.19335 30.3455 -21.69738 -0 0 9.629806 -13.55679 9.882226 7.444829 7.465949 -23.16147 -3.782032 -87.74526 24.22786 13.96902 0 0 -25.38715 9.986358 16.27651 2.782301
1.813763 100.9822 21.84949 -0.3069331 -0.9425181 1.569365 2.939456 -32.04292 -2.826322 -0 11.60382 -0 -8.162039 1.600486 -1.074851 -5.136446 16.76355 -12.68076 -0 10.26194 -0 0.790344 -22.30336 14.2677 -1.666801 -0.9203977 2.05174 1.809379 9.363233 -7.293426 1.871238 22.70919 6.377444 2.859265 -22.63605 8.570572 1.36968 -16.65798 10.69129 91.21745 26.16506 -22.24348 -0 0 6.78378 -16.93114 10.02797 8.931964 7.358866 -24.24122 -4.756197 -85.14754 23.36643 10.18614 0 0 -27.78862 9.006602 16.53934 3.668272
1.723368 99.87389 27.93122 0.2668654 -3.125797 2.286081 2.066062 -28.54256 -4.653844 -0 10.13053 -0 -8.727565 2.315648 -2.657348 -4.869469 18.65713 -10.47934 -0 13.07723 -0 -2.212309 -21.81393 11.80772 -1.354917 -1.156373 1.345047 1.167861 8.769852 -6.888871 2.251414 23.83976 5.613827 1.971662 -20.55375 8.239505 -0.6934925 -15.49306 10.21514 93.32094 21.57938 -22.42802 -0 0 4.07119 -19.49593 10.00846 10.00632 6.714457 -24.45941 -5.521377 -82.95093 23.46809 6.509141 0 0 -29.05388 6.572871 17.18797 6.08283
